<?xml version="1.0" standalone="no"?>
<!DOCTYPE svg PUBLIC "-//W3C//DTD SVG 20010904//EN"
 "http://www.w3.org/TR/2001/REC-SVG-20010904/DTD/svg10.dtd">
<svg version="1.0" xmlns="http://www.w3.org/2000/svg"
 width="567.000000pt" height="567.000000pt" viewBox="0 0 567.000000 567.000000"
 preserveAspectRatio="xMidYMid meet">
<metadata>
Created by potrace 1.16, written by Peter Selinger 2001-2019
</metadata>
<g transform="translate(0.000000,567.000000) scale(0.100000,-0.100000)"
fill="#000000" stroke="none">
<path d="M2038 4989 c-2 -297 -1 -543 1 -545 2 -2 546 -4 1208 -4 l1203 0 0
-1200 0 -1200 545 0 545 0 0 1745 0 1745 -1750 0 -1750 0 -2 -541z"/>
<path d="M140 2285 l0 -2155 2155 0 2155 0 0 200 0 200 -1952 2 -1953 3 -3
1953 -2 1952 -200 0 -200 0 0 -2155z"/>
<path d="M1457 2850 c-117 -20 -216 -100 -258 -209 -34 -85 -39 -275 -10 -370
25 -83 69 -144 135 -188 62 -42 114 -56 206 -57 95 0 165 23 222 74 l43 38
-54 55 -53 55 -44 -33 c-75 -57 -169 -55 -238 5 -47 42 -64 84 -72 176 -15
177 47 290 168 308 55 8 102 -6 148 -43 l37 -30 54 55 54 56 -43 38 c-67 60
-187 88 -295 70z"/>
<path d="M2182 2850 c-101 -21 -189 -95 -231 -193 -59 -137 -50 -365 17 -477
112 -183 402 -213 582 -59 l35 29 -54 50 -54 49 -31 -24 c-50 -38 -100 -55
-163 -55 -114 1 -191 65 -201 170 l-5 50 263 0 263 0 -5 98 c-7 132 -34 199
-107 273 -39 39 -71 61 -106 72 -64 21 -149 28 -203 17z m131 -144 c66 -24
106 -77 121 -158 l7 -38 -181 0 -180 0 0 35 c0 40 28 101 58 128 23 21 87 46
117 46 11 0 37 -6 58 -13z"/>
<path d="M3020 2854 c-106 -20 -196 -82 -226 -153 -19 -46 -20 -149 -1 -192
18 -43 61 -83 110 -104 20 -8 97 -22 169 -29 122 -13 134 -16 155 -41 25 -28
30 -74 12 -107 -40 -75 -267 -78 -363 -4 l-33 25 -51 -52 c-29 -29 -52 -56
-52 -60 0 -15 108 -77 165 -93 81 -24 240 -25 317 -1 123 37 190 123 189 240
0 75 -12 112 -49 150 -54 58 -92 69 -315 92 -75 8 -109 36 -109 89 0 51 31 82
96 96 62 12 151 0 209 -30 l40 -21 51 51 51 51 -30 25 c-16 13 -57 33 -91 43
-62 20 -198 33 -244 25z"/>
<path d="M3610 2440 l0 -411 83 3 82 3 0 405 0 405 -82 3 -83 3 0 -411z"/>
</g>
</svg>
